HIERARCHY
ROOT Hips
{
 OFFSET 0.000000 0.000000 0.000000
 CHANNELS 6 Xposition Yposition Zposition Yrotation Xrotation Zrotation
 JOINT Chest
 {
  OFFSET 0.000000 9.585900 0.002600
  CHANNELS 3 Yrotation Xrotation Zrotation
  JOINT Chest2
  {
   OFFSET 0.000000 9.601200 -0.005300
   CHANNELS 3 Yrotation Xrotation Zrotation
   JOINT Chest3
   {
    OFFSET 0.000000 9.561800 0.000000
    CHANNELS 3 Yrotation Xrotation Zrotation
    JOINT Chest4
    {
     OFFSET 0.000000 9.552100 0.000000
     CHANNELS 3 Yrotation Xrotation Zrotation
     JOINT Neck
     {
      OFFSET 0.000000 14.453000 0.000000
      CHANNELS 3 Yrotation Xrotation Zrotation
      JOINT Head
      {
       OFFSET 0.000000 8.936500 -0.011300
       CHANNELS 3 Yrotation Xrotation Zrotation
       End Site
       {
        OFFSET 0.000000 17.073600 -0.006000
       }
      }
     }
     JOINT RightCollar
     {
      OFFSET -2.921100 9.558500 0.000000
      CHANNELS 3 Yrotation Xrotation Zrotation
      JOINT RightShoulder
      {
       OFFSET -13.519700 0.000000 0.000000
       CHANNELS 3 Yrotation Xrotation Zrotation
       JOINT RightElbow
       {
        OFFSET 0.000000 -29.696600 0.000000
        CHANNELS 3 Yrotation Xrotation Zrotation
        JOINT RightWrist
        {
         OFFSET 0.000000 -24.004700 0.000000
         CHANNELS 3 Yrotation Xrotation Zrotation
         End Site
         {
          OFFSET 0.000000 -17.728500 0.000000
         }
        }
       }
      }
     }
     JOINT LeftCollar
     {
      OFFSET 2.921100 9.558500 0.000000
      CHANNELS 3 Yrotation Xrotation Zrotation
      JOINT LeftShoulder
      {
       OFFSET 13.519700 0.000000 0.000000
       CHANNELS 3 Yrotation Xrotation Zrotation
       JOINT LeftElbow
       {
        OFFSET 0.000000 -29.696600 0.000000
        CHANNELS 3 Yrotation Xrotation Zrotation
        JOINT LeftWrist
        {
         OFFSET 0.000000 -24.004700 0.000000
         CHANNELS 3 Yrotation Xrotation Zrotation
         End Site
         {
          OFFSET 0.000000 -17.728500 0.000000
         }
        }
       }
      }
     }
    }
   }
  }
 }
 JOINT RightHip
 {
  OFFSET -7.771700 -0.012900 -0.001300
  CHANNELS 3 Yrotation Xrotation Zrotation
  JOINT RightKnee
  {
   OFFSET 0.000000 -40.869800 0.001200
   CHANNELS 3 Yrotation Xrotation Zrotation
   JOINT RightAnkle
   {
    OFFSET 0.000000 -39.717900 0.002100
    CHANNELS 3 Yrotation Xrotation Zrotation
    JOINT RightToe
    {
     OFFSET 0.000000 -4.965400 11.033500
     CHANNELS 3 Yrotation Xrotation Zrotation
     End Site
     {
      OFFSET 0.000000 -1.423100 5.872300
     }
    }
   }
  }
 }
 JOINT LeftHip
 {
  OFFSET 7.771700 -0.012900 -0.001300
  CHANNELS 3 Yrotation Xrotation Zrotation
  JOINT LeftKnee
  {
   OFFSET 0.000000 -40.869800 0.001200
   CHANNELS 3 Yrotation Xrotation Zrotation
   JOINT LeftAnkle
   {
    OFFSET 0.000000 -39.717900 0.002100
    CHANNELS 3 Yrotation Xrotation Zrotation
    JOINT LeftToe
    {
     OFFSET 0.000000 -4.965400 11.033500
     CHANNELS 3 Yrotation Xrotation Zrotation
     End Site
     {
      OFFSET 0.000000 -1.423100 5.872300
     }
    }
   }
  }
 }
}
MOTION
Frames: 15
Frame Time: 0.008333
0.000000 85.388000 0.000000 0.000000 -5.767877 0.000000 0.000000 11.653817 0.000000 0.000000 -5.885947 0.000000 0.000000 -0.000000 0.000000 0.000000 -0.000000 0.000000 0.000000 12.528835 0.000000 0.000000 0.711642 0.000000 0.000000 -0.000000 0.000000 0.000000 0.000000 -90.000000 0.000000 -2.309062 0.000000 0.000000 2.309062 0.000000 0.000000 -0.000000 0.000000 0.000000 -0.000000 90.000000 0.000000 -2.309062 0.000000 0.000000 2.309062 0.000000 0.000000 8.520406 0.000000 0.000000 1.905762 0.000000 -0.000000 -4.658285 0.000000 0.000000 -0.000000 0.000000 0.000000 8.520406 0.000000 0.000000 1.905762 0.000000 -0.000000 -4.658285 0.000000 0.000000 -0.000000 0.000000
-219.370120 57.816318 -73.704105 164.780378 -5.405033 -0.086062 3.166486 3.279749 2.203209 0.074652 0.107642 0.040425 0.162598 0.176655 0.063133 3.107762 3.304673 1.278545 -7.453390 18.764656 -0.862578 -13.383771 -0.721402 0.765177 1.976743 5.997270 -1.038012 -10.559383 -16.149506 -15.163078 -113.293042 -70.649359 144.159877 -2.128673 1.760470 -8.842303 -4.198429 3.206886 -1.443115 6.662307 -20.126876 15.220514 75.343494 -61.675284 -130.431829 -5.550074 5.643861 -4.965470 -11.297218 -66.035212 1.979920 -38.289592 72.026245 -40.534401 -6.392063 -8.409936 2.192272 0.318547 1.248713 -0.015116 -3.123507 -69.168013 14.860338 42.999965 64.856540 35.973255 -16.787725 -10.014677 3.996426 -1.179374 -1.488334 -0.334046
-219.360522 57.820688 -73.738139 164.766869 -5.434224 -0.131631 3.080670 3.336393 2.270852 0.088840 0.095955 0.035879 0.157957 0.170490 0.063933 3.066024 3.237296 1.309221 -7.368957 18.696009 -0.900662 -13.220657 -0.858454 0.676060 1.927673 6.061019 -0.970578 -10.591746 -16.065420 -14.798921 -113.153551 -70.761847 143.852924 -2.169079 1.734311 -8.878209 -4.057458 3.325425 -1.337121 7.171872 -19.519123 15.281409 75.052606 -61.519027 -130.410862 -5.566892 5.623833 -5.096816 -11.433846 -65.959658 2.051913 -38.270038 72.065254 -40.386714 -6.451696 -8.540328 2.080471 0.421315 1.328327 0.061861 -2.986993 -69.149480 14.848341 43.038603 64.923976 35.957047 -16.768491 -10.057789 4.058217 -1.276371 -1.485294 -0.318233
-219.363953 57.824288 -73.771544 164.703477 -5.416089 -0.108857 3.047955 3.327558 2.269483 0.086307 0.092530 0.036256 0.153513 0.164437 0.064626 3.025811 3.169233 1.338837 -7.279986 18.637952 -0.935821 -13.049499 -0.975750 0.589684 1.892941 6.128174 -0.896574 -10.591755 -15.962190 -14.457675 -112.916988 -70.860952 143.440127 -2.223907 1.702948 -8.944951 -3.914680 3.440434 -1.233669 7.630728 -18.876204 15.351434 74.833881 -61.433554 -130.367457 -5.588653 5.610945 -5.211344 -11.421677 -65.940044 1.975949 -38.077658 72.119497 -40.110530 -6.380502 -8.678919 2.038589 0.382075 1.419254 0.048181 -2.628499 -69.182222 14.652939 43.060992 65.001782 35.927062 -16.763694 -10.076969 4.115448 -1.334279 -1.475095 -0.334292
-219.367071 57.827333 -73.804488 164.629069 -5.382927 -0.096515 3.022655 3.294545 2.279194 0.083939 0.089245 0.036574 0.149328 0.158691 0.065165 2.987672 3.102613 1.366024 -7.188275 18.588022 -0.967319 -12.873948 -1.077587 0.508174 1.869722 6.191291 -0.816309 -10.566762 -15.840367 -14.131559 -112.630758 -70.956258 142.969497 -2.291584 1.669633 -9.048386 -3.771064 3.546098 -1.133156 8.036667 -18.202065 15.425959 74.679210 -61.424168 -130.300002 -5.612356 5.606532 -5.306757 -11.379090 -65.964918 1.949016 -38.072061 72.160442 -40.040282 -6.389872 -8.719274 1.996360 0.419821 1.422364 0.063636 -2.279187 -69.231480 14.480482 43.075382 65.085133 35.892687 -16.744964 -10.099816 4.174144 -1.380800 -1.457270 -0.354632
-219.371979 57.829572 -73.834770 164.522839 -5.328086 -0.081511 3.029018 3.234975 2.286467 0.081834 0.086178 0.036768 0.145608 0.153269 0.065493 2.954845 3.037881 1.388435 -7.096331 18.547122 -0.993550 -12.699050 -1.162134 0.435235 1.853263 6.245078 -0.727632 -10.526890 -15.696813 -13.814076 -112.357086 -71.058042 142.504068 -2.367511 1.635139 -9.180818 -3.631969 3.639372 -1.029356 8.394454 -17.501985 15.497344 74.566597 -61.488022 -130.196968 -5.635018 5.612360 -5.377441 -11.315262 -66.020096 1.936492 -38.087232 72.204281 -39.994963 -6.382652 -8.747827 1.954727 0.449249 1.410011 0.063238 -1.884959 -69.304144 14.296779 43.072053 65.172838 35.849107 -16.736826 -10.121775 4.232926 -1.441083 -1.471630 -0.331885
-219.375995 57.831664 -73.867083 164.437209 -5.289686 -0.073587 3.019777 3.188319 2.298605 0.080020 0.083301 0.036841 0.163811 0.153438 0.060217 2.907704 2.969320 1.411270 -7.006482 18.517933 -1.015298 -12.528810 -1.224296 0.369909 1.838475 6.287616 -0.631420 -10.485759 -15.528967 -13.498662 -112.136989 -71.173864 142.090976 -2.439151 1.601809 -9.328617 -3.500854 3.719139 -0.921241 8.702934 -16.780074 15.563600 74.469585 -61.615148 -130.030600 -5.657255 5.627836 -5.425543 -11.262296 -66.059084 1.938256 -38.167924 72.235175 -40.020401 -6.412610 -8.768282 1.906640 0.512209 1.397760 0.103774 -1.504989 -69.360533 14.107946 43.039603 65.265536 35.787226 -16.731842 -10.149927 4.292059 -1.506074 -1.479109 -0.313154
-219.380375 57.833765 -73.899995 164.359785 -5.261198 -0.063249 3.051126 3.155175 2.301029 0.036023 0.074183 0.047939 0.226823 0.164044 0.043728 2.820350 2.893085 1.442459 -6.918969 18.520955 -1.043768 -12.363023 -1.282760 0.319397 1.825409 6.317907 -0.532681 -10.446588 -15.340007 -13.180603 -111.986703 -71.309111 141.750294 -2.491354 1.572582 -9.488873 -3.376051 3.785732 -0.817936 8.957749 -16.043774 15.628795 74.353796 -61.791572 -129.769918 -5.679869 5.657280 -5.448167 -11.207411 -66.090500 1.929965 -38.253954 72.266420 -40.056326 -6.440786 -8.783775 1.863679 0.575019 1.387309 0.165613 -1.108432 -69.405016 13.892612 42.980567 65.359703 35.708560 -16.740328 -10.189372 4.384019 -1.531877 -1.450739 -0.360038
-219.388328 57.836094 -73.932572 164.284409 -5.233424 -0.029859 3.020344 3.117601 2.295085 0.054660 0.075017 0.042530 0.160170 0.143797 0.060007 2.862407 2.852769 1.440818 -6.831746 18.512417 -1.063809 -12.197014 -1.305918 0.256087 1.817298 6.338740 -0.436717 -10.407565 -15.131576 -12.856509 -111.947927 -71.466409 141.523588 -2.521299 1.551430 -9.661404 -3.254496 3.845340 -0.722573 9.163881 -15.308372 15.690877 74.171339 -61.998152 -129.390590 -5.703620 5.707598 -5.434853 -11.127816 -66.132677 1.874862 -38.314436 72.311812 -40.077769 -6.438469 -8.793294 1.822758 0.604151 1.357080 0.183380 -0.645941 -69.448606 13.603536 42.915876 65.449162 35.630811 -16.742505 -10.211852 4.409945 -1.551850 -1.403742 -0.400269
-219.394490 57.839209 -73.965456 164.231292 -5.218894 -0.002457 2.989233 3.096404 2.289847 0.057510 0.073514 0.041934 0.134545 0.134999 0.065636 2.864190 2.804415 1.447266 -6.745026 18.487557 -1.074042 -12.031951 -1.302488 0.183059 1.813893 6.355785 -0.343525 -10.369681 -14.906565 -12.525331 -112.071125 -71.648050 141.453405 -2.538537 1.538485 -9.830294 -3.136776 3.908394 -0.632895 9.330722 -14.596075 15.745062 73.876830 -62.219501 -128.871789 -5.726214 5.779351 -5.373975 -11.096374 -66.160325 1.844135 -38.370233 72.359251 -40.109662 -6.422819 -8.797475 1.791488 0.620329 1.318822 0.194993 -0.224287 -69.476858 13.331267 42.864243 65.528653 35.566294 -16.748127 -10.233604 4.427866 -1.555514 -1.378473 -0.401309
-219.399002 57.843167 -73.996410 164.186107 -5.204315 0.019476 3.014293 3.080986 2.275842 0.038745 0.070209 0.047058 0.133294 0.133053 0.065589 2.853603 2.778913 1.452543 -6.694687 18.452832 -1.068443 -11.874379 -1.319103 0.129534 1.770769 6.341121 -0.235276 -10.330596 -14.670459 -12.190418 -112.336852 -71.849050 141.515333 -2.544055 1.530946 -9.977569 -3.069505 3.951995 -0.532381 9.464890 -13.923973 15.790911 73.448764 -62.446483 -128.198822 -5.749696 5.873422 -5.257807 -11.101167 -66.186814 1.847244 -38.421424 72.404050 -40.153165 -6.400449 -8.793563 1.774011 0.628269 1.278507 0.207565 0.150676 -69.501430 13.093532 42.828810 65.598105 35.512438 -16.761353 -10.256080 4.459343 -1.548578 -1.361827 -0.401480
-219.403961 57.847853 -74.023411 164.125995 -5.174658 0.048123 3.000187 3.046657 2.267919 0.074236 0.073666 0.036657 0.132273 0.131278 0.065500 2.845894 2.754769 1.456762 -6.649815 18.450874 -1.075498 -11.714232 -1.370201 0.102890 1.732433 6.335844 -0.131028 -10.287441 -14.428104 -11.853117 -112.661861 -72.055843 141.638778 -2.534080 1.527175 -10.102882 -3.016723 3.994088 -0.493391 9.572260 -13.286129 15.881295 72.899123 -62.675440 -127.385613 -5.776914 5.992620 -5.085169 -11.102109 -66.226329 1.862841 -38.444879 72.442285 -40.181857 -6.365983 -8.796659 1.760788 0.621174 1.251299 0.215066 0.524036 -69.536030 12.865590 42.807757 65.657262 35.467594 -16.804634 -10.276290 4.519709 -1.545172 -1.363712 -0.402012
-219.406993 57.852900 -74.041967 164.090544 -5.108588 0.059690 2.945655 2.977808 2.297050 0.113094 0.074121 0.013075 0.130009 0.127800 0.065103 2.783793 2.668186 1.486882 -6.524814 18.466808 -1.105082 -11.576385 -1.377584 0.058752 1.761431 6.414824 -0.075629 -10.243202 -14.182265 -11.510769 -112.972552 -72.254324 141.767785 -2.513789 1.528254 -10.210735 -2.901769 4.107374 -0.500830 9.672557 -12.682916 15.949541 72.247706 -62.913528 -126.458489 -5.805696 6.129460 -4.867752 -11.254592 -66.294691 2.003731 -38.405132 72.477698 -40.182753 -6.318596 -8.795009 1.758413 0.580286 1.229440 0.219217 0.808047 -69.603506 12.694718 42.709118 65.699972 35.380774 -16.865301 -10.276220 4.468762 -1.462874 -1.333121 -0.372050
-219.407132 57.858562 -74.057159 164.050048 -5.038361 0.059908 2.955044 2.909810 2.319568 0.098168 0.067784 0.011175 0.099037 0.121489 0.090172 2.794737 2.618868 1.481632 -6.430316 18.457974 -1.109006 -11.444593 -1.379103 0.022381 1.745913 6.475447 -0.022265 -10.201956 -13.933573 -11.164314 -113.210597 -72.433972 141.856064 -2.494352 1.536137 -10.298149 -2.820488 4.221057 -0.451024 9.771282 -12.139076 15.941844 71.520756 -63.176064 -125.445316 -5.841872 6.269138 -4.632330 -11.276692 -66.360680 2.064202 -38.431206 72.486812 -40.207037 -6.303761 -8.783490 1.757306 0.578522 1.204639 0.220250 1.045856 -69.672381 12.574984 42.616626 65.738500 35.295911 -16.932891 -10.282168 4.420462 -1.397880 -1.297737 -0.349328
-219.410325 57.864943 -74.075205 163.997882 -4.991919 0.093774 2.992166 2.867268 2.299347 0.084608 0.065010 0.024977 0.100298 0.124035 0.088364 2.779702 2.577396 1.496777 -6.356364 18.454011 -1.107727 -11.309559 -1.390621 0.001662 1.744231 6.520592 -0.017588 -10.210993 -13.667741 -10.773976 -113.312226 -72.589159 141.851411 -2.484091 1.548903 -10.363056 -2.730214 4.406812 -0.362555 9.848694 -11.709267 15.857145 70.763611 -63.473360 -124.391005 -5.893050 6.405028 -4.398566 -11.269304 -66.409178 2.075941 -38.372299 72.512562 -40.170843 -6.261133 -8.785078 1.759249 0.539905 1.188514 0.207069 1.362810 -69.714249 12.381958 42.615062 65.774955 35.261578 -16.993821 -10.291775 4.449200 -1.369142 -1.283884 -0.361616
